<?xml version="1.0" encoding="utf-8"?>
<!-- Generator: Adobe Illustrator 26.1.0, SVG Export Plug-In . SVG Version: 6.00 Build 0)  -->
<svg version="1.1" id="Слой_1" xmlns="http://www.w3.org/2000/svg" xmlns:xlink="http://www.w3.org/1999/xlink" x="0px" y="0px"
	 viewBox="0 0 356 121" style="enable-background:new 0 0 356 121;" xml:space="preserve">
<style type="text/css">
	.st0{fill:#FFFFFF;}
</style>
<polyline class="st0" points="109.9,41.4 133.2,41.4 134,63.9 134.3,63.9 143.9,41.4 167.2,41.4 158.9,82.5 144.8,82.5 151.3,50.2 
	151,50.2 136.3,82.5 123.2,82.5 121.9,50.2 121.5,50.2 114.9,82.5 101.5,82.5 109.9,41.4 "/>
<path class="st0" d="M181.2,83.2l1.3-6.6h-2.8c-10.8,0-14.7-6.1-14.7-12.2c0-9,7.3-19.6,21.6-19.6h2.5l1.2-6.2H206l-1.2,6.2h2.5
	c5.8,0,15,1.4,15,12.3c0,9.6-6.9,19.6-20.9,19.6h-3.1l-1.3,6.6H181.2 M187.8,54.2h-0.9c-4.2,0-7,4.4-7,8.3c0,2.4,1.5,4.8,4.3,4.8
	h0.9L187.8,54.2z M199.5,67.2h0.9c4.4,0,6.9-4.8,6.9-8.4c0-2.6-1.5-4.6-4.3-4.6h-0.9L199.5,67.2z"/>
<polyline class="st0" points="269.2,41.4 266.7,53.5 252.9,53.5 247,82.5 231.3,82.5 237.1,53.5 223.3,53.5 225.7,41.4 269.2,41.4 
	"/>
<polyline class="st0" points="288.5,41.4 283.7,64.9 284,64.9 299.1,41.4 317.5,41.4 309.2,82.5 293.4,82.5 298.1,59.5 297.9,59.5 
	282.8,82.5 264.4,82.5 272.7,41.4 288.5,41.4 "/>
<polyline class="st0" points="329.7,98 332,86.4 354,93 329.7,98 "/>
<path class="st0" d="M324.5,89H96.9c-4.2,0-6,4.7-7.8,9.2c-0.6,1.6-1.6,4-2.3,5.1c-1.3-1.3-2.3-7.7-2.7-10.3l-0.2-1.4
	c-1.4-8.7-2.6-17.8-3.8-26.6c-5.2-38.6-7.6-52.2-14.8-52.3c-9-0.2-12.2,15.8-21.7,63.2L42.3,82c-1.4,7-4.6,7-6,7h-4.3L31,95.1h5.3
	c3.6,0,9.9-1.6,12-11.9l1.2-6.2c5.9-29.2,11.4-56.7,15.3-58.1c3.4,3.6,6.7,28.5,9.2,46.9c1.2,8.9,2.4,18,3.8,26.8l0.2,1.4
	c1.1,7,2.4,15.7,8.9,15.7c4.2,0,6-4.7,7.8-9.2c0.7-1.7,1.8-4.5,2.5-5.3h226.2L324.5,89"/>
</svg>
